<svg width="64" height="64" viewBox="0 0 64 64" fill="none" xmlns="http://www.w3.org/2000/svg">
<path d="M32 -2.38419e-06C14.3268 -2.38419e-06 0 14.3268 0 32C0 37.1051 1.20144 41.9273 3.32762 46.2092L9.87325 46.7832C7.0423 42.5546 5.38941 37.4707 5.38941 32C5.38941 17.3034 17.3034 5.38941 32 5.38941C46.6966 5.38941 58.6106 17.3034 58.6106 32C58.6106 46.6966 46.6966 58.6106 32 58.6106C28.293 58.6106 24.7642 57.8506 21.558 56.4813V62.2479C24.8316 63.378 28.3424 64 32 64C49.6732 64 64 49.6732 64 32C64 14.3268 49.6732 -2.38419e-06 32 -2.38419e-06Z" fill="#FF3F00"/>
<path d="M17.326 52.7601H11.4683V48.2042H17.326V52.7601Z" fill="#FF3F00"/>
<path d="M11.4682 57.3164H5.61053V52.7605H11.4682V57.3164Z" fill="#FF3F00"/>
<path d="M17.326 61.8723H11.4683V57.3164H17.326V61.8723Z" fill="#FF3F00"/>
<path d="M40.153 41.2732C39.764 41.9903 39.265 42.5418 38.6691 42.9123C38.059 43.2921 37.2822 43.5684 36.3586 43.734C35.832 43.8309 34.8885 43.88 33.5545 43.88H25.9772V33.6366H32.9896C34.9701 33.6366 36.5008 33.8098 37.5397 34.1509C38.5392 34.4804 39.3306 35.0564 39.8909 35.8639C40.4546 36.676 40.7405 37.6498 40.7405 38.7581C40.7405 39.7081 40.5427 40.5543 40.153 41.2732ZM25.9772 20.2521H31.9901C34.2309 20.2521 35.8255 20.3962 36.7288 20.681C37.5957 20.9546 38.2437 21.4459 38.709 22.1836C39.1773 22.9271 39.4149 23.8028 39.4149 24.7873C39.4149 25.8205 39.1639 26.6858 38.6687 27.3588C38.1747 28.031 37.4217 28.5212 36.4283 28.8162C35.6546 29.0512 34.337 29.1704 32.5113 29.1704H25.9772V20.2521ZM44.1892 33.7205C43.2572 32.4957 41.9676 31.5713 40.3484 30.9662C41.5395 30.2557 42.467 29.3677 43.1116 28.3184C43.8819 27.0652 44.272 25.7094 44.272 24.2876C44.272 22.7646 43.8339 21.2872 42.9694 19.8965C42.1017 18.5011 40.8861 17.4534 39.3562 16.7823C37.8475 16.1212 35.8293 15.7859 33.3586 15.7859H21.0549V43.8815H25.9783V48.3462H33.5545C35.6032 48.3462 37.3611 48.1638 38.7802 47.8032C40.2166 47.4383 41.4318 46.8884 42.3926 46.1679C43.3603 45.4421 44.1815 44.4012 44.8334 43.0752C45.4845 41.7504 45.8149 40.2979 45.8149 38.7581C45.8149 36.8343 45.268 35.1392 44.1892 33.7205Z" fill="#FF3F00"/>
</svg>
